PathFileType	4	(X/Y/Z)	C:\Users\WrightLab\Desktop\Jo\P5V23.trc
DataRate	CameraRate	NumFrames	NumMarkers	Units	OrigDataRate	OrigDataStartFrame	OrigNumFrames
100.00	100.00	       39	19	mm	100.00	93	       739
Frame#	Time	Headset_Front			Headset_Back			Headset_Left			Headset_Right			Left_Shoulder			Right_Shoulder			Sternum			C7			Left Elbow			Right Elbow			Left Wrist			Right Wrist			Left ASIS			Right ASIS			S2			Left Knee			Right Knee			Left Ankle			Right Ankle			
		X1	Y1	Z1	X2	Y2	Z2	X3	Y3	Z3	X4	Y4	Z4	X5	Y5	Z5	X6	Y6	Z6	X7	Y7	Z7	X8	Y8	Z8	X9	Y9	Z9	X10	Y10	Z10	X11	Y11	Z11	X12	Y12	Z12	X13	Y13	Z13	X14	Y14	Z14	X15	Y15	Z15	X16	Y16	Z16	X17	Y17	Z17	X18	Y18	Z18	X19	Y19	Z19	

93	0.920																												-624.44800	1177.21130	-1136.76062				-530.15503	1105.33203	-929.82343	-190.12186	911.07385	-1085.88708	-464.36234	933.23120	-1052.81946				-151.17067	479.99014	-1125.06030	-519.15259	473.67734	-1096.08252	-222.64180	66.54899	-1248.62756				
94	0.930																												-624.19415	1177.60022	-1135.99414				-530.08337	1108.81506	-928.40588	-189.34700	911.64294	-1085.19971	-464.61380	933.44855	-1052.85767				-150.76170	480.24078	-1124.54419	-518.07635	472.56186	-1095.02600	-222.41122	67.68035	-1248.25220				
95	0.940																												-623.83936	1177.94653	-1134.73792				-529.10553	1112.07727	-926.69208	-189.27913	911.09259	-1085.55212	-464.48550	933.58075	-1052.69312				-150.52486	480.10532	-1124.32043	-518.79462	473.94403	-1095.66589	-222.41122	67.68035	-1248.25220				
96	0.950																												-623.51874	1178.48169	-1133.04968				-529.05829	1115.09888	-924.67200	-189.21643	911.65076	-1085.11316	-464.51193	933.59222	-1052.70679				-150.58496	479.92902	-1124.17981	-518.92920	473.78000	-1095.78516	-222.41122	67.68035	-1248.25220				
97	0.960																												-623.42371	1179.01050	-1131.20007				-527.76965	1118.18152	-923.24176	-189.16498	911.67267	-1085.07996	-464.31894	933.80585	-1052.69250				-150.56131	479.92337	-1124.16553	-518.88916	473.77502	-1095.76709	-222.64180	66.54899	-1248.62756				
98	0.970																												-623.09967	1179.26025	-1129.58411				-526.86719	1121.22949	-920.58856	-189.10269	911.68878	-1085.03931	-464.32541	933.81110	-1052.69617				-150.64197	479.88367	-1123.86609	-518.70758	473.93991	-1095.62756	-222.64180	66.54899	-1248.62756				
99	0.980																												-623.13013	1180.51379	-1128.58411				-526.08606	1124.70422	-918.92059	-189.02203	911.70020	-1084.98621	-464.38254	934.08472	-1052.98376				-150.58061	480.00397	-1123.71106	-518.81927	473.35318	-1095.12256	-222.41122	67.68035	-1248.25220				
100	0.990																												-623.10986	1181.24292	-1126.30994				-525.55237	1127.86401	-916.86230	-188.91098	912.22620	-1082.91858	-464.26688	933.88330	-1052.79834				-150.18112	480.20657	-1123.21924	-518.76801	473.34750	-1095.09949	-222.64180	66.54899	-1248.62756				
101	1.000																												-622.85211	1181.52783	-1125.63586				-524.14532	1131.42065	-916.08533	-188.86092	912.23578	-1082.88574	-464.26645	933.88733	-1052.79846				-150.62164	480.10608	-1122.52136	-518.76270	473.76501	-1095.71094	-222.64180	66.54899	-1248.62756				
102	1.010																												-622.53607	1181.34143	-1122.57764				-523.15948	1133.98572	-913.95447	-188.84532	912.23645	-1082.87537	-463.93738	933.88818	-1052.78027				-150.75252	479.79315	-1121.86975	-518.50922	473.43478	-1095.11121	-222.64180	66.54899	-1248.62756				
103	1.020																												-622.17548	1182.00012	-1120.54785				-522.31714	1137.71948	-912.03259	-188.76912	912.26898	-1082.82642	-463.52887	934.25745	-1052.25330				-150.63907	479.56839	-1119.98376	-517.40155	472.49399	-1095.07556	-222.64180	66.54899	-1248.62756				
104	1.030																												-622.19647	1182.62646	-1119.01074				-520.92224	1140.47766	-909.96692	-188.74933	912.27008	-1082.81323	-463.58984	934.54382	-1052.54407				-150.76663	479.40698	-1120.01929	-517.43896	472.51328	-1095.08508	-222.75011	67.94497	-1247.35474				
105	1.040																												-621.74286	1182.46948	-1116.40637				-519.33972	1143.95508	-908.38959	-189.13898	911.79059	-1081.99658	-463.47180	934.67206	-1052.32361				-150.77107	479.38580	-1120.01660	-518.62598	473.52115	-1094.97827	-222.41122	67.68035	-1248.25220				
106	1.050																												-621.96631	1183.89795	-1114.47107				-518.68365	1146.84363	-906.74390	-189.08342	912.40051	-1081.92358	-463.42038	934.41718	-1052.04065				-150.95998	478.99866	-1120.00500	-517.83679	472.48077	-1094.97217	-222.64180	66.54899	-1248.62756				
107	1.060																												-621.60382	1184.59497	-1114.03992				-517.87561	1150.10620	-905.15057	-189.65254	912.90076	-1080.63489	-463.03015	934.78339	-1052.28992				-150.97536	478.97498	-1120.00757	-517.85388	472.49353	-1094.97717	-222.64180	66.54899	-1248.62756				
108	1.070																												-621.02161	1185.05383	-1111.49451				-515.58038	1152.45764	-903.32892	-190.13863	912.80780	-1080.77527	-463.03558	934.80609	-1052.29480				-151.05643	479.00818	-1119.40173	-518.71490	473.53366	-1095.01855	-222.64180	66.54899	-1248.62756				
109	1.080																												-620.42065	1185.32361	-1109.86023				-513.42719	1156.31226	-902.18402	-190.13145	912.79535	-1080.76990	-463.03967	934.82745	-1052.29895				-151.06914	478.62369	-1119.24573	-518.75787	473.54892	-1095.03931	-222.64180	66.54899	-1248.62756				
110	1.090																												-619.89484	1185.52673	-1108.41418				-510.77802	1158.70325	-900.94946	-190.11880	912.79749	-1080.76160	-463.40729	934.87213	-1052.34021				-151.15221	478.92133	-1119.15930	-518.77087	473.55093	-1095.04517	-222.64180	66.54899	-1248.62756				
111	1.100																												-617.08173	1186.96973	-1105.22327				-509.98157	1161.24866	-900.38971	-190.59004	912.57465	-1080.89905	-463.41693	934.90186	-1052.34778				-150.93982	479.21048	-1118.75696	-518.77899	473.56381	-1095.05054	-222.75011	67.94497	-1247.35474				
112	1.110																												-617.07245	1187.13342	-1102.92590				-507.48938	1163.55249	-898.37640	-190.60197	912.56458	-1080.90649	-463.44971	934.93628	-1052.36682				-150.85211	479.03824	-1118.35254	-518.80341	473.57227	-1095.06226	-222.64180	66.54899	-1248.62756				
113	1.120																												-616.35498	1188.07581	-1101.33081				-506.24762	1166.53845	-896.69635	-190.56941	912.56842	-1080.88501	-463.47702	934.97479	-1052.38367				-151.30721	479.00140	-1118.42566	-518.76270	473.57813	-1095.04541	-222.64180	66.54899	-1248.62756				
114	1.130																												-615.97833	1188.58838	-1099.32007				-504.58148	1169.58948	-895.63489	-190.54129	912.58197	-1080.86707	-464.00055	935.39221	-1052.27332				-151.52194	478.49078	-1118.07129	-518.94519	473.41501	-1095.18555	-222.75011	67.94497	-1247.35474				
115	1.140																												-615.57629	1189.33179	-1098.50220				-502.97983	1172.16528	-895.06726	-190.51349	912.58331	-1080.84863	-464.22745	935.69342	-1052.23633				-151.89166	478.09015	-1117.63684	-518.75659	473.57983	-1095.04297	-222.75011	67.94497	-1247.35474				
116	1.150																												-614.53308	1189.91809	-1096.69641				-500.99722	1174.85449	-894.32190	-190.03497	912.80798	-1080.70642	-464.01324	935.47375	-1052.28772				-151.70982	478.10657	-1117.42126	-518.60901	473.67245	-1094.94177	-223.95177	65.10278	-1249.97534				
117	1.160																												-614.66901	1190.37732	-1095.14221				-500.25931	1176.22510	-893.60809	-190.46954	912.59363	-1080.81995	-464.00406	936.06860	-1052.12756				-152.74222	478.54831	-1115.52441	-518.70697	473.55600	-1094.96008	-222.64180	66.54899	-1248.62756				
118	1.170																												-613.67029	1190.86694	-1093.46228				-496.56369	1178.98071	-892.01013	-189.97569	912.81671	-1080.66748	-463.87817	936.21265	-1052.09656				-152.61906	478.24786	-1115.36633	-518.55078	473.65576	-1094.91431	-222.64180	66.54899	-1248.62756				
119	1.180																												-612.75574	1191.39966	-1092.66162				-495.60037	1181.30847	-891.43774	-189.94182	913.29382	-1079.17273	-464.08487	936.76392	-1052.04724				-152.37918	478.75211	-1115.05334	-518.51538	473.65533	-1094.89893	-222.64180	66.54899	-1248.62756				
120	1.190																												-611.39697	1191.64697	-1090.87659				-495.09982	1183.02332	-890.76978	-189.44421	913.25836	-1079.00476	-464.00085	936.87708	-1052.13037				-152.39394	478.74255	-1115.05896	-518.51862	473.65552	-1094.90027	-222.64180	66.54899	-1248.62756				
121	1.200																												-610.80011	1191.98950	-1090.61951				-492.57990	1184.86475	-890.98987	-189.90109	913.20135	-1078.06934	-463.96140	936.87183	-1052.11121				-152.49121	478.69507	-1114.76831	-517.69586	472.65424	-1094.89954	-222.41122	67.68035	-1248.25220				
122	1.210																												-610.28320	1192.47778	-1089.33557				-490.15155	1186.07800	-890.41058	-189.85391	913.74603	-1078.16174	-463.84921	937.01147	-1051.90564				-152.74097	478.67038	-1114.82422	-518.39813	473.73666	-1094.55725	-222.64180	66.54899	-1248.62756				
123	1.220																												-609.80786	1192.83215	-1087.95007				-488.14130	1188.32861	-890.20538	-189.84267	913.75323	-1078.15454	-463.63531	937.20782	-1051.43738				-152.74858	478.66333	-1114.82654	-518.16449	473.98242	-1094.14514	-222.64180	66.54899	-1248.62756				
124	1.230																												-609.46228	1192.91785	-1087.29700				-487.21268	1190.07507	-890.44409	-189.84799	913.76318	-1078.15857	-464.18759	937.57898	-1050.99487				-152.75507	478.65897	-1114.82898	-518.31781	473.87476	-1094.16101	-222.64180	66.54899	-1248.62756				
125	1.240																												-608.19031	1193.32556	-1086.24231				-486.05386	1191.86560	-889.66626	-189.82175	913.77106	-1078.14160	-463.94519	937.52539	-1051.26868				-152.76288	478.65369	-1114.83191	-518.33136	473.87189	-1094.16650	-222.64180	66.54899	-1248.62756				
126	1.250																												-607.52704	1193.53662	-1085.51404				-485.00253	1192.81934	-889.25525	-189.81592	913.77478	-1078.13794	-463.81851	937.62695	-1051.19263				-153.10126	478.53363	-1114.89697	-518.37048	473.87750	-1094.18433	-222.64180	66.54899	-1248.62756				
127	1.260																												-606.13110	1193.41650	-1084.32141				-482.55615	1193.90186	-888.54694	-189.79050	913.79382	-1078.12207	-463.66159	938.00983	-1051.10352				-153.33463	478.52267	-1114.77173	-518.41895	473.89780	-1094.20801	-222.75011	67.94497	-1247.35474				
128	1.270																												-605.57422	1193.29126	-1083.85986				-481.28488	1195.12598	-888.70880	-189.74384	914.22003	-1077.31067	-463.69724	937.74463	-1050.91821				-153.36198	478.59958	-1114.40955	-518.61407	473.76587	-1094.43713	-222.64180	66.54899	-1248.62756				
129	1.280																												-605.18121	1193.45239	-1083.42627				-479.47659	1196.04138	-888.30292	-189.69749	914.23328	-1077.28064	-463.96460	937.79602	-1050.53186				-152.93033	478.75873	-1114.26611	-518.08154	472.86844	-1094.19006	-223.95177	65.10278	-1249.97534				
130	1.290																												-604.99646	1193.62268	-1082.16882				-478.60248	1196.95398	-888.14392	-188.56725	914.29010	-1076.90710	-463.68393	937.95648	-1050.84253				-153.03297	478.54321	-1114.10925	-518.67755	473.78098	-1094.27893	-222.64180	66.54899	-1248.62756				
131	1.300																												-604.34015	1194.02258	-1082.11450				-478.14645	1198.90894	-886.53601	-188.49020	914.32953	-1076.85803	-463.91110	938.06104	-1050.56689				-153.27481	478.55576	-1113.98535	-518.70087	473.78137	-1094.28906	-222.75011	67.94497	-1247.35474				
